<svg width="41" height="41" viewBox="0 0 41 41" fill="none" xmlns="http://www.w3.org/2000/svg">
<g clip-path="url(#clip0_40_466)">
<path fill-rule="evenodd" clip-rule="evenodd" d="M27.3051 20.4788C27.3051 19.1287 26.9047 17.8089 26.1546 16.6863C25.4046 15.5638 24.3384 14.6888 23.0911 14.1722C21.8438 13.6555 20.4712 13.5203 19.1471 13.7837C17.8229 14.0471 16.6066 14.6972 15.6519 15.6519C14.6972 16.6066 14.0471 17.8229 13.7837 19.1471C13.5203 20.4712 13.6555 21.8438 14.1722 23.0911C14.6888 24.3384 15.5638 25.4046 16.6863 26.1546C17.8089 26.9047 19.1287 27.3051 20.4788 27.3051C22.2892 27.3051 24.0255 26.5859 25.3057 25.3057C26.5859 24.0255 27.3051 22.2892 27.3051 20.4788ZM30.9913 20.4788C30.9913 23.2669 29.8837 25.9408 27.9122 27.9122C25.9408 29.8837 23.2669 30.9913 20.4788 30.9913C17.6907 30.9913 15.0168 29.8837 13.0454 27.9122C11.0739 25.9408 9.96635 23.2669 9.96635 20.4788C9.96635 17.6907 11.0739 15.0168 13.0454 13.0454C15.0168 11.0739 17.6907 9.96635 20.4788 9.96635C23.2669 9.96635 25.9408 11.0739 27.9122 13.0454C29.8837 15.0168 30.9913 17.6907 30.9913 20.4788ZM33.8583 9.53971C33.8617 10.0272 33.72 10.5047 33.4512 10.9114C33.1825 11.3181 32.7989 11.6357 32.3492 11.8238C31.8994 12.012 31.4039 12.0621 30.9256 11.9678C30.4473 11.8735 30.0079 11.6391 29.6632 11.2944C29.3185 10.9497 29.0841 10.5103 28.9898 10.032C28.8955 9.55369 28.9457 9.05817 29.1338 8.60844C29.3219 8.15871 29.6395 7.77508 30.0462 7.50636C30.453 7.23763 30.9304 7.09594 31.4179 7.09932C32.0651 7.09932 32.6859 7.35643 33.1435 7.81409C33.6012 8.27175 33.8583 8.89248 33.8583 9.53971ZM20.4788 3.68618C17.4923 3.68618 11.0927 3.44727 8.39631 4.50534C7.5114 4.8431 6.71276 5.37359 6.05831 6.05831C5.37359 6.71276 4.8431 7.5114 4.50534 8.39631C3.41313 11.0927 3.68618 17.4923 3.68618 20.4788C3.68618 23.4653 3.44727 29.8649 4.50534 32.5613C4.85138 33.4419 5.38075 34.2389 6.05831 34.8993C6.71873 35.5769 7.51569 36.1062 8.39631 36.4523C11.0927 37.5103 17.4923 37.2714 20.4788 37.2714C23.4653 37.2714 29.8649 37.5103 32.5613 36.4523C33.4462 36.1145 34.2449 35.584 34.8993 34.8993C35.5769 34.2389 36.1062 33.4419 36.4523 32.5613C37.5103 29.8649 37.2714 23.4653 37.2714 20.4788C37.2714 17.4923 37.5103 11.0927 36.4523 8.39631C36.1145 7.5114 35.584 6.71276 34.8993 6.05831C34.2449 5.37359 33.4462 4.8431 32.5613 4.50534C29.8649 3.41313 23.4653 3.68618 20.4788 3.68618ZM40.9576 20.4788C40.9576 23.3117 40.9576 26.1105 40.8211 28.9263C40.9091 32.1189 39.7313 35.2168 37.5445 37.5445C35.2434 39.7227 32.1797 40.9115 29.0116 40.8552C26.1105 40.9576 23.3117 40.9576 20.4788 40.9576C17.6459 40.9576 14.8471 40.9576 12.0313 40.8211C8.83872 40.9091 5.74082 39.7313 3.41313 37.5445C1.2473 35.238 0.0710762 32.1749 0.136525 29.0116C0 26.1105 0 23.3117 0 20.4788C0 17.6459 0 14.8471 0.136525 12.0313C0.0485 8.83872 1.22631 5.74082 3.41313 3.41313C5.7142 1.23486 8.77791 0.0461405 11.946 0.102394C14.8471 0 17.6459 0 20.4788 0C23.3117 0 26.1105 0 29.0116 0.136525C32.1749 0.0710762 35.238 1.2473 37.5445 3.41313C39.7227 5.7142 40.9115 8.77791 40.8552 11.946C40.9576 14.8471 40.9576 17.6459 40.9576 20.4788Z" fill="black"/>
</g>
<defs>
<clipPath id="clip0_40_466">
<rect width="40.9576" height="40.9576" fill="white"/>
</clipPath>
</defs>
</svg>
