<svg width="402" height="55" viewBox="0 0 402 55" fill="none" xmlns="http://www.w3.org/2000/svg">
<path d="M0 10.2186H9.47943C17.1158 10.2186 21.6755 13.7704 21.6755 19.6788C21.6755 23.1346 20.0916 25.5825 17.4038 26.4464C21.2915 27.2624 23.5954 30.0462 23.5954 34.078C23.5954 39.9816 18.7957 43.8214 11.3993 43.8214H0.0239927L0 10.2186ZM9.47943 24.3825C13.7992 24.3825 16.007 22.7506 16.007 19.6788C16.007 16.607 13.8472 15.0183 9.47943 15.0183H5.44766V24.3825H9.47943ZM11.3993 39.0217C15.6231 39.0217 17.9269 37.2938 17.9269 34.078C17.9269 30.8622 15.6231 29.1343 11.3993 29.1343H5.44766V39.0217H11.3993Z" fill="white"/>
<path d="M27.2624 27.0224C27.2624 16.751 34.126 9.45064 43.6774 9.45064C52.1249 9.45064 58.1773 15.1623 58.5565 23.4706L52.8401 23.9506C52.4081 17.9989 48.9043 14.2983 43.6726 14.2983C37.433 14.2983 32.9213 19.6308 32.9213 27.0224C32.9213 34.4139 37.433 39.7896 43.6726 39.7896C48.9043 39.7896 52.5041 36.0938 52.8881 30.3342L58.5565 30.8141C58.1725 38.9737 52.0721 44.5893 43.6774 44.5893C34.126 44.5893 27.2624 37.2938 27.2624 27.0224Z" fill="white"/>
<path d="M64.3641 10.2186H70.7478L86.4908 35.4699V10.2186H92.2025V43.8166H85.8189L70.0758 18.5701V43.8166H64.3641V10.2186Z" fill="white"/>
<path d="M110.105 10.2186H131.608V15.0183H115.769V23.9986H129.208V28.7503H115.769V43.8214H110.105V10.2186Z" fill="white"/>
<path d="M134.344 27.0224C134.344 16.703 141.112 9.45064 150.759 9.45064C160.406 9.45064 167.174 16.703 167.174 27.0224C167.174 37.3418 160.406 44.5893 150.759 44.5893C141.112 44.5893 134.344 37.3418 134.344 27.0224ZM150.759 39.7896C157.143 39.7896 161.51 34.6059 161.51 27.0224C161.51 19.4388 157.143 14.2551 150.759 14.2551C144.375 14.2551 140.032 19.4196 140.032 27.0224C140.032 34.6251 144.423 39.7896 150.759 39.7896Z" fill="white"/>
<path d="M179.989 15.0183H167.99V10.2186H197.652V15.0183H185.653V43.8166H179.989V15.0183Z" fill="white"/>
<path d="M236.914 10.2186H242.578V23.9986H256.977V10.2186H262.64V43.8166H256.977V28.7455H242.578V43.8166H236.914V10.2186Z" fill="white"/>
<path d="M269.456 31.5821V10.2186H275.12V31.5821C275.12 36.5738 277.951 39.7896 282.319 39.7896C286.687 39.7896 289.471 36.5738 289.471 31.5821V10.2186H295.134V31.5821C295.134 39.3576 289.999 44.5893 282.319 44.5893C274.64 44.5893 269.456 39.3576 269.456 31.5821Z" fill="white"/>
<path d="M301.95 10.2186H311.405C319.037 10.2186 323.597 13.7704 323.597 19.6788C323.597 23.1346 322.013 25.5825 319.325 26.4464C323.213 27.2624 325.517 30.0462 325.517 34.078C325.517 39.9816 320.717 43.8214 313.325 43.8214H301.95V10.2186ZM311.405 24.3825C315.725 24.3825 317.933 22.7506 317.933 19.6788C317.933 16.607 315.773 15.0183 311.405 15.0183H307.374V24.3825H311.405ZM313.325 39.0217C317.549 39.0217 319.853 37.2938 319.853 34.078C319.853 30.8622 317.549 29.1343 313.325 29.1343H307.374V39.0217H313.325Z" fill="white"/>
<path d="M334.54 16.463H330.892V9.74342H337.948V16.463C337.948 20.9267 334.876 23.7106 329.932 23.7106V20.3508C332.908 20.3508 334.54 18.9397 334.54 16.463Z" fill="white"/>
<path d="M361.37 21.0227C361.37 16.799 359.163 14.2551 355.419 14.2551C351.675 14.2551 348.795 17.039 348.795 20.6388L342.796 20.1588C342.796 14.0104 348.123 9.45064 355.275 9.45064C362.426 9.45064 367.37 14.0584 367.37 20.7348C367.37 27.5503 362.138 33.934 352.347 39.0217H368.138V43.8214H342.844V39.0217C356.715 31.6301 361.37 26.9744 361.37 21.0227Z" fill="white"/>
<path d="M379.605 10.2186H385.297C385.297 19.6308 382.844 25.9664 377.229 30.4302H390.577V10.2186H396.24V30.4302H402V35.1819H396.24V43.8214H390.577V35.1819H370.125V30.4302C377.205 26.3504 379.605 21.1667 379.605 10.2186Z" fill="white"/>
<path d="M234.519 13.0552L232.273 10.0746C232.273 10.0746 232.273 10.0746 232.244 10.0458L228.577 6.23482L226.906 5.0205L225.625 4.11334L221.531 2.25586L218.747 1.10873L215.483 0.331181L211.951 0L208.37 0.134391L204.986 0.700754L201.996 1.71349L198.238 3.3454L194.878 5.26529L193.232 6.94519L192.574 7.61234L188.499 11.7593L185.96 16.9814L184.52 20.4996V20.5284L183.675 26.4896V26.6192L184.05 30.4014V30.459L185.063 36.3002V36.329L187.861 41.5607L189.829 44.7573L193.808 48.3619L196.62 50.6466L200.494 52.4657L203.657 53.4016L206.872 54.232L210.41 54.5727L213.99 54.3903L217.374 53.6944L220.072 52.8928L224.185 51.2705L227.401 49.1107L231.197 45.6885L233.693 42.6166L236.448 37.5625L237.471 33.9004L238.555 28.0111V27.9871L237.792 22.0067L237.005 18.4117C237 18.3889 236.991 18.3676 236.976 18.3493L234.509 13.1032L234.519 13.0552ZM236.683 18.4741L237.197 20.8212L235.186 16.4006L235.22 16.295L234.845 14.5623L236.683 18.4741ZM237.163 33.7996L236.904 34.7595L237.418 31.9181L237.523 31.7885L237.562 31.6541L237.163 33.7996ZM230.972 45.4437L227.458 47.8051L229.201 43.9654H229.254L233.237 41.3111L231.217 45.1509L230.972 45.4437ZM214.384 53.9776L213.933 54.0688L210.4 54.2512L210.295 54.0784L214.706 53.848L214.384 53.9776ZM200.599 52.1729L200.436 52.0961L198.454 49.9314L203.733 51.2849H203.781L204.972 53.3824L203.013 52.8736L200.599 52.1729ZM195.799 49.5714L194.043 47.9443L198.031 49.8162L198.161 49.8498L200.042 51.9041L196.807 50.3874L195.799 49.5714ZM190.04 44.5365L189.982 44.4405L189.377 43.4566L187.722 40.3224L191.081 43.0486L191.182 43.0966L193.016 46.9652L190.04 44.5365ZM184.323 30.3486L184.295 30.0366L185.039 24.6369L187.069 27.8479L186.354 33.6076L184.323 30.3486ZM225.419 4.43013L226.988 5.54366L223.748 3.93097L223.643 3.79177L222.999 3.3118L225.419 4.43013ZM234.197 13.2136L234.764 15.8535L230.948 11.3897V11.3369L230.497 9.16745L233.727 12.6088L234.197 13.2136ZM227.079 48.0547L222.28 49.9458L223.532 46.1684L228.961 44.0566L227.17 48.0019L227.079 48.0547ZM205.183 53.4496L203.964 51.3185L209.882 51.8849L210.05 53.9152L205.183 53.4496ZM222.995 3.75336L217.849 2.99021L217.801 2.92783L217.038 2.38065L221.18 2.51504L221.358 2.59184L222.995 3.75336ZM198.108 49.4802L196.668 45.5973L202.812 47.1716L203.604 50.901L198.132 49.4946L198.108 49.4802ZM233.933 19.3812L231.533 22.1843L228.044 16.343L230.031 14.0872L233.933 19.3812ZM205.418 2.81262L210.122 3.70538L204.77 3.46539L205.38 2.83183L205.418 2.81262ZM206.618 2.13107L210.391 3.57099L205.649 2.66864L206.565 2.14067L206.618 2.13107ZM208.111 1.6271L210.731 3.54698L206.892 2.06387L208.096 1.6511L208.111 1.6271ZM209.791 1.33432L211.043 3.54219L208.346 1.5887L209.791 1.33432ZM215.118 1.81429L216.227 2.29426L212.027 3.54698L215.085 1.81908L215.118 1.81429ZM216.52 2.40465L217.326 2.98062L212.349 3.61418L216.467 2.38546L216.52 2.40465ZM224.627 5.65406L224.934 7.22356L218.694 4.82371L218.55 4.06055L224.627 5.63966V5.65406ZM229.805 13.8136L227.866 16.0598L223.244 10.9241L224.651 9.37384L229.805 13.8136ZM209.93 47.474V42.2903L217.081 41.9447L216.827 47.1524L209.93 47.474ZM215.584 20.5284L214.427 14.14L217.744 13.5352L220.278 19.6836L215.584 20.5284ZM207.376 7.85232L208.955 8.23631L206.978 13.5832L203.868 12.8488L207.376 7.85232ZM211.043 8.43308L212.81 8.3659L214.168 13.7896L210.722 13.9288L211.043 8.43308ZM209.282 7.95311L211.202 4.26215L210.899 8.10192L209.282 7.95311ZM212.882 8.02991L211.547 4.27655L214.427 7.75634L212.882 8.02991ZM212.704 8.02991L211.067 8.09711L211.37 4.25734L212.704 8.02991ZM214.624 7.70834L211.821 4.28614L215.929 7.25236L214.624 7.70834ZM209.114 7.91953L207.674 7.56434L211.034 4.27174L209.114 7.91953ZM214.36 13.78L212.987 8.38029L214.638 8.08752L217.571 13.2232L214.36 13.78ZM216.131 7.18037L212.099 4.30054L217.129 6.6092L216.131 7.18037ZM207.458 7.51635L206.248 6.99798L210.751 4.28134L207.458 7.51635ZM209.147 8.2843L210.89 8.4475L210.573 13.948L207.17 13.6264L209.147 8.2843ZM217.744 13.18L214.802 8.02991L216.241 7.54994L220.561 12.2105L217.744 13.18ZM217.288 6.50841L212.354 4.24294L217.926 5.81245L217.288 6.50841ZM206.032 6.94038L205.154 6.29722L210.434 4.28134L206.032 6.94038ZM205.903 7.25716L207.208 7.82353L203.7 12.8152L201.118 11.6873L205.903 7.25716ZM214.24 14.14L215.411 20.5572L210.419 20.7684L210.707 14.2839L214.24 14.14ZM215.464 20.8979L216.347 27.8143L210.165 28.0927L210.4 21.1235L215.464 20.8979ZM216.525 27.7855L215.637 20.8788L220.384 19.9956L222.303 26.6816L216.525 27.7855ZM220.436 19.626L217.893 13.4728L220.748 12.4601L224.463 18.1669L220.436 19.626ZM220.691 12.1049L216.371 7.42995L217.456 6.78679L222.827 10.8041L220.691 12.1049ZM218.291 4.90531L218.037 5.64926L212.555 4.10375L218.291 4.90531ZM204.991 6.15322L204.487 5.43326L210.184 4.17574L204.991 6.15322ZM204.794 6.44601L205.754 7.14198L200.954 11.5913L199.068 10.185L204.794 6.44601ZM210.53 14.2839L210.242 20.7684L205.303 20.2884L207.04 13.9384L210.53 14.2839ZM210.227 21.1139L209.992 28.0831L203.868 27.5119L205.212 20.6484L210.227 21.1139ZM209.983 28.4287L209.819 35.3259L202.98 34.6779L203.825 27.8431L209.983 28.4287ZM209.983 35.3307L210.146 28.4335L216.385 28.1551L216.913 35.0091L209.983 35.3307ZM222.462 26.6384L220.542 19.9524L224.627 18.4741L227.449 24.8001L222.462 26.6384ZM224.603 18.0949L220.883 12.3784L223.081 11.0441L227.694 16.1702L224.603 18.0949ZM222.956 10.6986L217.566 6.662L218.257 5.92284L224.324 9.18185L222.956 10.6986ZM218.344 5.77405L218.613 4.9917L224.939 7.42516L224.411 9.03785L218.344 5.77405ZM218.147 3.99815L218.281 4.73251L212.627 3.94056L218.147 3.99815ZM204.391 5.27488L204.3 4.54052L210.021 4.06055L204.391 5.27488ZM204.127 5.54366L204.669 6.31642L198.91 10.0602L197.835 8.48108L204.127 5.54366ZM203.503 13.0936L200.446 19.1221L196.692 17.4614L200.849 11.9321L203.503 13.0936ZM203.666 13.1512L206.853 13.9288L205.121 20.2788L200.609 19.1701L203.666 13.1512ZM205.039 20.6148L203.695 27.4784L198.113 26.0912L200.508 19.4964L205.039 20.6148ZM203.642 27.8143L202.797 34.6443L196.558 33.0748L198.022 26.4128L203.642 27.8143ZM209.8 35.6667L209.728 41.9543L202.653 41.2823L202.937 35.0139L209.8 35.6667ZM209.896 41.9591L209.973 35.6715L216.918 35.3499L217.053 41.5895L209.896 41.9591ZM217.072 34.9803L216.539 28.1263L222.376 27.0176L223.551 33.7372L217.072 34.9803ZM227.588 24.7185L224.766 18.3925L227.9 16.4438L231.399 22.2995L227.588 24.7185ZM217.537 3.14861L218.017 3.82057L212.546 3.76297L217.504 3.13421L217.537 3.14861ZM211.667 3.52779L213.434 1.42071L214.806 1.74709L211.667 3.52779ZM209.973 3.86376L204.319 4.34373L204.593 3.61897L209.973 3.86376ZM203.94 4.59331L204.06 5.38047L197.782 8.31309L197.566 6.686L203.94 4.59331ZM198.766 10.3962L200.686 11.8361L196.529 17.3654L193.798 15.2919L198.766 10.3962ZM200.326 19.4196L197.974 26.0192L193.337 23.941L196.529 17.7349L200.326 19.4196ZM197.873 26.3552L196.433 33.0028L191.249 30.6462L193.232 24.253L197.873 26.3552ZM202.783 34.9947L202.5 41.2343L196.049 39.5976L196.529 33.4012L202.783 34.9947ZM209.743 42.3047V47.4836L202.946 46.8356L202.658 41.6279L209.743 42.3047ZM209.743 47.8291L209.843 51.5201L203.791 50.9441L202.989 47.186L209.743 47.8291ZM216.966 47.1188L217.221 41.9399L223.907 40.6104L223.417 45.8181L216.966 47.1188ZM217.225 41.5895L217.091 35.3499L223.585 34.0828L223.921 40.2744L217.225 41.5895ZM223.715 33.6748L222.539 26.9552L227.55 25.1073L229.273 31.5581L223.715 33.6748ZM230.588 11.3033L229.858 13.6648L224.708 9.23464L225.246 7.59314L230.588 11.2937V11.3033ZM223.388 4.02216L224.43 5.41887L218.483 3.86857V3.84456L218.003 3.16301L223.311 3.95015L223.388 4.02216ZM213.237 1.40631L211.437 3.58058L211.715 1.28632L213.237 1.40631ZM211.264 3.58058L209.983 1.32952L211.543 1.27192L211.264 3.58058ZM203.94 4.43493L197.657 6.49401L198.252 4.9773L198.3 4.9293L204.223 3.68137L203.94 4.43493ZM197.566 8.67307L198.665 10.2858L193.712 15.1815L192.171 12.8584L197.566 8.67307ZM196.375 17.6773L193.188 23.8738L189.829 21.2675L193.611 15.5799L196.375 17.6773ZM193.049 24.2193L191.081 30.5886L187.333 27.6367L189.665 21.5987L193.049 24.2193ZM196.351 33.4012L195.872 39.5736L190.525 37.1114L191.149 31.0301L196.351 33.4012ZM202.5 41.6375L202.788 46.826L196.587 45.2421L196.054 39.996L202.5 41.6375ZM210.035 51.5537L209.935 47.8627L216.769 47.5219L216.16 51.2417L210.035 51.5537ZM229.085 43.6438L223.595 45.7797L224.103 40.6008L229.825 38.4073L229.1 43.6342L229.085 43.6438ZM224.108 40.2312L223.777 34.0492L229.345 31.9517L229.825 38.0281L224.108 40.2312ZM229.445 31.5197L227.727 25.0785L231.567 22.645L233.688 28.7695L229.445 31.5197ZM234.864 16.3094L234.005 19.1892L230.165 13.9576L230.905 11.5577L234.855 16.1798L234.864 16.3094ZM230.089 8.84587L230.569 11.0777L225.318 7.42035L225.001 5.82684L229.997 8.70667L230.089 8.84587ZM209.786 1.01273H209.699L208.812 0.470363L211.797 0.359978L211.615 0.931146L209.786 1.01273ZM209.44 1.07033L208 1.31992L207.856 1.36792L205.73 0.964732L208.399 0.484761H208.495L209.44 1.07033ZM204.3 3.48458L198.54 4.70371L199.822 3.3886L199.951 3.3166L204.948 2.83663L204.338 3.46539L204.3 3.48458ZM197.479 8.51469L192.133 12.6616L191.869 10.3002V10.257L197.259 6.85399L197.479 8.51469ZM193.481 15.4551L189.713 21.1187L187.837 18.2149L191.921 13.1128L193.481 15.4551ZM189.526 21.4643L187.218 27.4352L185.149 24.2193V24.133L187.63 18.5701L189.526 21.4643ZM190.966 30.9294L190.342 36.9578L186.502 33.9052V33.862L187.232 27.9823L190.966 30.9294ZM195.852 39.9288L196.375 45.1365L191.278 42.7654L191.249 42.7414L190.525 37.4618L195.852 39.9288ZM196.419 45.5349H196.462L197.873 49.3746L193.433 47.2964L193.323 47.21L191.403 43.207L196.419 45.5349ZM222.025 50.0178L216.347 51.1889L216.957 47.4788L223.335 46.1924L222.073 50.0322L222.025 50.0178ZM233.386 40.7352L229.263 43.4854L229.983 38.3113L234.303 35.4603L233.439 40.6536L233.386 40.7352ZM234.346 35.0331L229.993 37.9129L229.513 31.8653L233.756 29.1199L234.375 35.0283L234.346 35.0331ZM236.439 25.4337L233.799 28.5823L231.706 22.5107L234.106 19.7076L236.453 25.4097L236.439 25.4337ZM224.987 5.60126V5.52926L224.027 4.22374L227.953 6.17242L228.375 6.47L229.791 8.3515L224.987 5.60126ZM220.763 2.31825L216.813 2.18867L216.726 2.12627L215.699 1.68949L218.454 1.38232L218.661 1.43031L220.763 2.31825ZM215.382 1.5551L215.262 1.50231L213.938 1.18553L215.31 0.657558H215.45L217.96 1.25272L215.382 1.5551ZM213.645 1.11833L213.549 1.09433L211.816 0.931146L212.003 0.35037L214.926 0.619152L213.645 1.11833ZM205.279 1.02234L207.554 1.4591L206.46 1.82869L206.335 1.90068L202.817 1.82389L205.082 1.05593L205.279 1.02234ZM202.145 2.04947L202.342 1.98707L206.047 2.06868L205.212 2.54865L205.135 2.62544L200.335 3.10542L202.145 2.04947ZM197.94 4.8813L193.428 7.28116L195.084 5.59166L195.905 5.11169L199.121 3.62858L197.983 4.78531L197.94 4.8813ZM193.03 7.67954L197.83 5.12129L197.235 6.6428V6.6716L191.955 9.9882L192.819 7.84753L193.03 7.67954ZM191.845 12.9592L187.808 17.9797L187.491 15.0999L187.558 14.9367L191.533 10.5834L191.845 12.9592ZM184.832 20.6676L185.351 19.3956L187.218 15.5175L187.525 18.3397L187.554 18.3877L185.154 23.7778L184.832 20.6676ZM190.366 37.385H190.395L191.105 42.5783L187.506 39.6984L187.419 39.5592L186.579 34.3707L190.366 37.385ZM206.066 53.704L210.112 54.088L210.203 54.2416L206.94 53.9296L206.066 53.704ZM210.247 53.92L210.079 51.8849L216.073 51.5825L215.181 53.6656L210.247 53.92ZM222.155 50.3682L226.647 48.6067L224.43 50.7234L224.036 50.9921L220.393 52.4321L222.083 50.3874L222.155 50.3682ZM234.562 35.3451H234.596L237.197 32.2013L236.4 36.569L236.16 37.4282L233.717 40.4232L234.562 35.3451ZM237.211 31.6157L234.548 34.8459L233.919 29.0191L236.559 25.88L237.231 31.4717L237.211 31.6157ZM234.264 19.578V19.554L235.114 16.6742L237.379 21.6419L237.451 21.9827L236.544 25.1697L234.264 19.578ZM232.004 10.3002L232.776 11.3225L230.444 8.83627L230.41 8.68748L230.281 8.50988L232.004 10.3002ZM199.438 3.283L197.571 4.14694L198.367 3.66697L199.538 3.1582L199.438 3.283ZM191.499 10.2714V10.353L187.736 14.4663L188.73 12.0329L192.2 8.49548L191.499 10.2714ZM184.832 24.3201L184.895 24.4161L184.223 29.307L184.074 27.7999L183.959 26.6288L184.602 22.0643L184.832 24.3201ZM186.272 34.15L186.349 34.2076L187.15 39.1705L185.341 36.2186L184.477 31.2461L186.272 34.15ZM215.349 53.6272L216.232 51.5681L221.78 50.4306L220.038 52.5377L219.928 52.5809L218.968 52.8688L215.349 53.6272ZM225.241 50.1522L227.036 48.4339L227.214 48.3667L229.134 47.0708L227.146 48.8611L225.241 50.1522ZM233.4 42.4247L232.364 43.7014L231.735 44.4741L233.506 41.0903L233.621 41.0135L235.234 39.0409L233.4 42.4247ZM238.2 27.9535L237.336 31.0349L236.712 25.6593L236.76 25.5969L237.562 22.8034L238.2 27.9535Z" fill="white"/>
</svg>
