<svg width="329" height="48" viewBox="0 0 329 48" fill="none" xmlns="http://www.w3.org/2000/svg">
<path fill-rule="evenodd" clip-rule="evenodd" d="M44.4722 32.7273H47.3944L47.5667 32.5582L46.0222 28.5055H45.8722L44.3 32.5636L44.4722 32.7273ZM48.0944 34.7564H43.7889L43.4444 34.9255L42.5833 37.1073L42.4111 37.2764H40.8722L40.7 37.1073V35.4545L44.6445 25.6364L44.8167 25.4727H47.0389L47.2111 25.6364L50.9889 35.0018V0H0.988892V48H50.9889V37.2873H49.4556L49.2833 37.1182L48.4222 34.9364L48.0944 34.7564ZM29.8667 25.6364L30.0389 25.4727H35.5389C37.2556 25.4727 38.9722 26.3127 38.9722 28.5055C38.9722 29.6891 38.4611 30.6873 37.2556 31.0418V31.2109C38.6333 31.5436 39.3167 32.5582 39.3167 34.0745C39.3167 36.4364 37.6 37.2818 35.8833 37.2818H30.0389L29.8667 37.1127V25.6364ZM21.1056 22.6091L20.9333 22.7782H18.8722L18.7 22.6091V16.0309H18.5278L15.75 22.6091L15.5778 22.7782H13.6889L13.5167 22.6091L10.7944 16.0309H10.6222V22.6091L10.4556 22.7782H8.38889L8.21667 22.6091V11.1545L8.38889 10.9855H10.9667L11.1389 11.1545L14.5778 19.4182H14.7611L18.2 11.1545L18.3667 10.9855H20.9444L21.1167 11.1545L21.1056 22.6091ZM33.4778 22.6091L33.3056 22.7782H31.7611L31.5889 22.6091L30.7278 20.4273L30.3833 20.2582H26.0889L25.7444 20.4273L24.8833 22.6091L24.7111 22.7782H23.1667L22.9944 22.6091V20.9236L26.95 11.1382L27.1167 10.9691H29.3389L29.5056 11.1382L33.4611 20.9236L33.4778 22.6091ZM40.35 22.9473C36.5667 22.9473 34.5056 20.4164 34.5056 16.8764C34.5056 13.3364 36.5667 10.8055 40.35 10.8055C43.1278 10.8055 44.9889 12.1527 45.35 14.3455L45.1778 14.5145H43.0944L42.9222 14.3455C42.5778 13.3309 41.7185 12.8236 40.3445 12.8236C37.9389 12.8236 36.9056 14.5145 36.9056 16.8764C36.9056 19.2382 37.9389 20.9236 40.3445 20.9236C41.7167 20.9236 42.5667 20.4164 42.9222 19.2382L43.0944 19.0909H45.1556L45.3278 19.26C44.9833 21.6218 43.1056 22.9691 40.3278 22.9691L40.35 22.9473ZM29.6945 18.2236L29.8667 18.0545L28.3222 14.0018H28.15L26.6056 18.0545L26.7722 18.2236H29.6945ZM32.4445 27.4964L32.2722 27.6655V30.0273L32.4445 30.1964H35.2222C35.4074 30.2143 35.5944 30.1916 35.7696 30.1299C35.9447 30.0681 36.1037 29.969 36.2351 29.8395C36.3664 29.71 36.4668 29.5535 36.5289 29.3813C36.5911 29.209 36.6135 29.0254 36.5944 28.8436C36.5944 28.0036 36.2556 27.4964 35.2222 27.4964H32.4445ZM32.4445 32.22L32.2722 32.3891V35.1164L32.4445 35.28H35.2222C36.4278 35.28 36.9389 34.7782 36.9389 33.7636C36.9389 32.7491 36.4278 32.2473 35.2222 32.2473L32.4445 32.22Z" fill="black"/>
<path d="M67 13.2786H72.8244C77.5164 13.2786 80.318 15.4609 80.318 19.0912C80.318 21.2146 79.3448 22.7186 77.6934 23.2495C80.0821 23.7508 81.4977 25.4613 81.4977 27.9385C81.4977 31.5658 78.5486 33.9251 74.0041 33.9251H67.0147L67 13.2786ZM72.8244 21.9813C75.4786 21.9813 76.8352 20.9787 76.8352 19.0912C76.8352 17.2038 75.5081 16.2277 72.8244 16.2277H70.3472V21.9813H72.8244ZM74.0041 30.976C76.5992 30.976 78.0148 29.9144 78.0148 27.9385C78.0148 25.9626 76.5992 24.9009 74.0041 24.9009H70.3472V30.976H74.0041Z" fill="black"/>
<path d="M83.7508 23.6033C83.7508 17.2923 87.968 12.8068 93.8366 12.8068C99.027 12.8068 102.746 16.3162 102.979 21.421L99.4664 21.7159C99.201 18.0591 97.0482 15.7853 93.8337 15.7853C89.9999 15.7853 87.2278 19.0618 87.2278 23.6033C87.2278 28.1449 89.9999 31.4479 93.8337 31.4479C97.0482 31.4479 99.26 29.1771 99.4959 25.6382L102.979 25.9331C102.743 30.9465 98.9946 34.397 93.8366 34.397C87.968 34.397 83.7508 29.9144 83.7508 23.6033Z" fill="black"/>
<path d="M106.547 13.2786H110.469L120.142 28.7937V13.2786H123.652V33.9222H119.729L110.057 18.41V33.9222H106.547V13.2786Z" fill="black"/>
<path d="M134.652 13.2786H147.864V16.2277H138.132V21.7454H146.389V24.665H138.132V33.9251H134.652V13.2786Z" fill="black"/>
<path d="M149.545 23.6033C149.545 17.2628 153.703 12.8068 159.631 12.8068C165.558 12.8068 169.716 17.2628 169.716 23.6033C169.716 29.9438 165.558 34.397 159.631 34.397C153.703 34.397 149.545 29.9438 149.545 23.6033ZM159.631 31.4479C163.553 31.4479 166.236 28.2629 166.236 23.6033C166.236 18.9438 163.553 15.7588 159.631 15.7588C155.708 15.7588 153.039 18.932 153.039 23.6033C153.039 28.2747 155.738 31.4479 159.631 31.4479Z" fill="black"/>
<path d="M177.59 16.2277H170.218V13.2786H188.443V16.2277H181.07V33.9222H177.59V16.2277Z" fill="black"/>
<path d="M212.566 13.2786H216.046V21.7454H224.894V13.2786H228.374V33.9222H224.894V24.6621H216.046V33.9222H212.566V13.2786Z" fill="black"/>
<path d="M232.561 26.405V13.2786H236.041V26.405C236.041 29.472 237.781 31.4479 240.465 31.4479C243.148 31.4479 244.859 29.472 244.859 26.405V13.2786H248.339V26.405C248.339 31.1825 245.183 34.397 240.465 34.397C235.746 34.397 232.561 31.1825 232.561 26.405Z" fill="black"/>
<path d="M252.526 13.2786H258.336C263.025 13.2786 265.827 15.4609 265.827 19.0912C265.827 21.2146 264.854 22.7186 263.202 23.2495C265.591 23.7508 267.006 25.4613 267.006 27.9385C267.006 31.5658 264.057 33.9251 259.516 33.9251H252.526V13.2786ZM258.336 21.9813C260.99 21.9813 262.347 20.9787 262.347 19.0912C262.347 17.2038 261.02 16.2277 258.336 16.2277H255.859V21.9813H258.336ZM259.516 30.976C262.111 30.976 263.527 29.9144 263.527 27.9385C263.527 25.9626 262.111 24.9009 259.516 24.9009H255.859V30.976H259.516Z" fill="black"/>
<path d="M272.551 17.1153H270.309V12.9866H274.645V17.1153C274.645 19.858 272.757 21.5684 269.72 21.5684V19.5041C271.548 19.5041 272.551 18.6371 272.551 17.1153Z" fill="black"/>
<path d="M289.036 19.917C289.036 17.3218 287.679 15.7588 285.379 15.7588C283.079 15.7588 281.309 17.4693 281.309 19.6811L277.623 19.3862C277.623 15.6084 280.897 12.8068 285.291 12.8068C289.685 12.8068 292.722 15.6379 292.722 19.74C292.722 23.9277 289.508 27.85 283.492 30.976H293.194V33.9251H277.653V30.976C286.175 26.4344 289.036 23.5738 289.036 19.917Z" fill="black"/>
<path d="M300.24 13.2786H303.737C303.737 19.0618 302.23 22.9545 298.78 25.6972H306.981V13.2786H310.461V25.6972H314V28.6168H310.461V33.9251H306.981V28.6168H294.415V25.6972C298.765 23.1905 300.24 20.0055 300.24 13.2786Z" fill="black"/>
<path d="M211.095 15.0215L209.715 13.1901C209.715 13.1901 209.715 13.1901 209.697 13.1724L207.444 10.8308L206.418 10.0847L205.63 9.52735L203.115 8.38606L201.404 7.68124L199.399 7.20349L197.228 7L195.028 7.08257L192.949 7.43056L191.112 8.05281L188.803 9.05551L186.738 10.2351L185.727 11.2673L185.323 11.6772L182.819 14.2252L181.259 17.4338L180.374 19.5955V19.6132L179.855 23.276V23.3556L180.085 25.6795V25.7148L180.708 29.3039V29.3216L182.427 32.5361L183.636 34.5001L186.081 36.7149L187.809 38.1187L190.189 39.2364L192.132 39.8114L194.108 40.3216L196.282 40.531L198.482 40.4189L200.561 39.9913L202.218 39.4988L204.746 38.502L206.721 37.175L209.054 35.0723L210.588 33.1849L212.28 30.0795L212.909 27.8293L213.575 24.2108V24.1961L213.106 20.5215L212.622 18.3127C212.62 18.2987 212.614 18.2855 212.605 18.2743L211.089 15.051L211.095 15.0215ZM212.425 18.351L212.74 19.7931L211.505 17.077L211.525 17.0121L211.295 15.9475L212.425 18.351ZM212.72 27.7674L212.561 28.3572L212.876 26.6114L212.941 26.5317L212.965 26.4492L212.72 27.7674ZM208.915 34.9219L206.757 36.3728L207.827 34.0135H207.86L210.307 32.3827L209.066 34.742L208.915 34.9219ZM198.723 40.1653L198.446 40.2214L196.276 40.3334L196.211 40.2272L198.921 40.0857L198.723 40.1653ZM190.254 39.0565L190.153 39.0093L188.936 37.6793L192.179 38.5109H192.209L192.94 39.7996L191.737 39.487L190.254 39.0565ZM187.305 37.4581L186.225 36.4583L188.676 37.6085L188.756 37.6291L189.912 38.8913L187.924 37.9594L187.305 37.4581ZM183.766 34.3645L183.73 34.3055L183.359 33.7009L182.341 31.7752L184.406 33.4503L184.468 33.4798L185.594 35.8567L183.766 34.3645ZM180.253 25.647L180.236 25.4553L180.693 22.1376L181.94 24.1105L181.501 27.6494L180.253 25.647ZM205.503 9.72199L206.468 10.4062L204.477 9.41529L204.412 9.32977L204.017 9.03486L205.503 9.72199ZM210.897 15.1188L211.245 16.7408L208.901 13.9982V13.9657L208.624 12.6327L210.608 14.7472L210.897 15.1188ZM206.524 36.5262L203.575 37.6881L204.344 35.3672L207.68 34.0696L206.58 36.4937L206.524 36.5262ZM193.07 39.8409L192.321 38.5315L195.957 38.8795L196.06 40.127L193.07 39.8409ZM204.014 9.30617L200.853 8.83727L200.823 8.79894L200.354 8.46274L202.899 8.54531L203.008 8.5925L204.014 9.30617ZM188.723 37.402L187.838 35.0162L191.613 35.9835L192.1 38.275L188.738 37.4109L188.723 37.402ZM210.735 18.9084L209.261 20.6306L207.117 17.0416L208.337 15.6555L210.735 18.9084ZM193.215 8.72816L196.105 9.27669L192.816 9.12923L193.191 8.73995L193.215 8.72816ZM193.952 8.30939L196.27 9.19411L193.356 8.63969L193.919 8.31529L193.952 8.30939ZM194.869 7.99973L196.479 9.17936L194.12 8.2681L194.86 8.01448L194.869 7.99973ZM195.901 7.81984L196.671 9.17642L195.014 7.97614L195.901 7.81984ZM199.175 8.11475L199.856 8.40966L197.275 9.17936L199.154 8.11769L199.175 8.11475ZM200.036 8.47748L200.531 8.83138L197.473 9.22066L200.003 8.46569L200.036 8.47748ZM205.017 10.474L205.206 11.4384L201.372 9.96382L201.283 9.49492L205.017 10.4652V10.474ZM208.199 15.4874L207.007 16.8676L204.167 13.7121L205.032 12.7595L208.199 15.4874ZM195.987 36.1693V32.9843L200.381 32.772L200.225 35.9717L195.987 36.1693ZM199.461 19.6132L198.75 15.688L200.788 15.3164L202.345 19.0942L199.461 19.6132ZM194.418 11.8247L195.388 12.0606L194.173 15.3459L192.262 14.8947L194.418 11.8247ZM196.671 12.1815L197.756 12.1402L198.591 15.4727L196.473 15.5582L196.671 12.1815ZM195.589 11.8866L196.768 9.61878L196.582 11.978L195.589 11.8866ZM197.8 11.9338L196.981 9.62763L198.75 11.7657L197.8 11.9338ZM197.691 11.9338L196.686 11.9751L196.871 9.61583L197.691 11.9338ZM198.871 11.7362L197.149 9.63352L199.673 11.4561L198.871 11.7362ZM195.485 11.866L194.601 11.6477L196.665 9.62468L195.485 11.866ZM198.709 15.4668L197.865 12.1491L198.88 11.9692L200.682 15.1247L198.709 15.4668ZM199.797 11.4118L197.32 9.64237L200.41 11.0609L199.797 11.4118ZM194.468 11.6183L193.725 11.2998L196.491 9.63057L194.468 11.6183ZM195.506 12.0901L196.577 12.1904L196.382 15.57L194.291 15.3724L195.506 12.0901ZM200.788 15.0982L198.98 11.9338L199.865 11.6389L202.519 14.5025L200.788 15.0982ZM200.508 10.9989L197.476 9.60698L200.9 10.5713L200.508 10.9989ZM193.592 11.2644L193.052 10.8692L196.296 9.63057L193.592 11.2644ZM193.512 11.459L194.315 11.807L192.159 14.874L190.572 14.181L193.512 11.459ZM198.635 15.688L199.355 19.6309L196.288 19.7607L196.465 15.7764L198.635 15.688ZM199.387 19.8403L199.93 24.0899L196.131 24.261L196.276 19.9789L199.387 19.8403ZM200.039 24.0722L199.493 19.8285L202.41 19.2859L203.589 23.3939L200.039 24.0722ZM202.442 19.0588L200.879 15.2781L202.634 14.6558L204.917 18.1623L202.442 19.0588ZM202.599 14.4376L199.944 11.5652L200.611 11.17L203.911 13.6384L202.599 14.4376ZM201.124 10.014L200.968 10.4711L197.6 9.52146L201.124 10.014ZM192.952 10.7807L192.642 10.3383L196.143 9.56569L192.952 10.7807ZM192.831 10.9606L193.421 11.3882L190.472 14.122L189.313 13.2579L192.831 10.9606ZM196.355 15.7764L196.178 19.7607L193.144 19.4657L194.211 15.5641L196.355 15.7764ZM196.17 19.973L196.025 24.255L192.262 23.9041L193.088 19.6869L196.17 19.973ZM196.019 24.4674L195.919 28.7052L191.716 28.3071L192.236 24.1076L196.019 24.4674ZM196.019 28.7082L196.119 24.4703L199.953 24.2993L200.278 28.5106L196.019 28.7082ZM203.687 23.3674L202.507 19.2593L205.017 18.351L206.751 22.2379L203.687 23.3674ZM205.002 18.118L202.717 14.6057L204.067 13.7858L206.901 16.9354L205.002 18.118ZM203.991 13.5735L200.679 11.0933L201.103 10.6392L204.831 12.6416L203.991 13.5735ZM201.156 10.5477L201.322 10.067L205.209 11.5622L204.884 12.5531L201.156 10.5477ZM201.036 9.45658L201.118 9.90779L197.644 9.42119L201.036 9.45658ZM192.584 10.241L192.527 9.78982L196.043 9.49492L192.584 10.241ZM192.421 10.4062L192.755 10.881L189.216 13.1813L188.555 12.211L192.421 10.4062ZM192.038 15.0451L190.159 18.7491L187.853 17.7287L190.407 14.3314L192.038 15.0451ZM192.138 15.0805L194.096 15.5582L193.032 19.4599L190.26 18.7786L192.138 15.0805ZM192.982 19.6663L192.156 23.8835L188.726 23.0312L190.198 18.9792L192.982 19.6663ZM192.123 24.0899L191.604 28.2864L187.771 27.3221L188.67 23.2288L192.123 24.0899ZM195.907 28.9146L195.863 32.7779L191.516 32.365L191.69 28.5135L195.907 28.9146ZM195.966 32.7808L196.013 28.9175L200.281 28.72L200.363 32.5538L195.966 32.7808ZM200.375 28.4929L200.048 24.2816L203.634 23.6004L204.356 27.7291L200.375 28.4929ZM206.836 22.1877L205.102 18.3009L207.028 17.1035L209.178 20.7014L206.836 22.1877ZM200.661 8.93459L200.956 9.34746L197.594 9.31208L200.64 8.92575L200.661 8.93459ZM197.054 9.16757L198.14 7.87292L198.983 8.07346L197.054 9.16757ZM196.013 9.374L192.539 9.66891L192.707 9.2236L196.013 9.374ZM192.306 9.82226L192.38 10.3059L188.523 12.1078L188.39 11.1081L192.306 9.82226ZM189.127 13.3877L190.307 14.2724L187.753 17.6698L186.075 16.3958L189.127 13.3877ZM190.086 18.932L188.641 22.9869L185.792 21.71L187.753 17.8968L190.086 18.932ZM188.579 23.1934L187.694 27.2779L184.509 25.8299L185.727 21.9017L188.579 23.1934ZM191.596 28.5017L191.422 32.3355L187.458 31.3299L187.753 27.5226L191.596 28.5017ZM195.872 32.9932V36.1752L191.696 35.7771L191.519 32.5773L195.872 32.9932ZM195.872 36.3876L195.934 38.6554L192.215 38.3015L191.722 35.9924L195.872 36.3876ZM200.31 35.9511L200.466 32.769L204.574 31.9521L204.274 35.1519L200.31 35.9511ZM200.469 32.5538L200.387 28.72L204.377 27.9414L204.583 31.7457L200.469 32.5538ZM204.456 27.6907L203.734 23.562L206.813 22.4266L207.872 26.3902L204.456 27.6907ZM208.68 13.9451L208.231 15.396L205.067 12.674L205.397 11.6654L208.68 13.9392V13.9451ZM204.256 9.47133L204.896 10.3295L201.242 9.37696V9.36221L200.947 8.94344L204.209 9.42708L204.256 9.47133ZM198.019 7.86408L196.913 9.20001L197.084 7.79035L198.019 7.86408ZM196.807 9.20001L196.019 7.81689L196.978 7.7815L196.807 9.20001ZM192.306 9.72495L188.446 10.9901L188.812 10.0582L188.841 10.0287L192.48 9.26194L192.306 9.72495ZM188.39 12.329L189.065 13.3199L186.022 16.3279L185.075 14.9006L188.39 12.329ZM187.659 17.8614L185.7 21.6687L183.636 20.0674L185.96 16.5727L187.659 17.8614ZM185.615 21.881L184.406 25.7945L182.102 23.9808L183.536 20.2708L185.615 21.881ZM187.644 27.5226L187.349 31.3151L184.064 29.8023L184.447 26.0658L187.644 27.5226ZM191.422 32.5832L191.599 35.7712L187.788 34.798L187.461 31.5747L191.422 32.5832ZM196.052 38.676L195.99 36.4082L200.189 36.1988L199.815 38.4843L196.052 38.676ZM207.757 33.816L204.383 35.1283L204.695 31.9462L208.211 30.5985L207.765 33.8101L207.757 33.816ZM204.698 31.7192L204.495 27.9208L207.916 26.632L208.211 30.3655L204.698 31.7192ZM207.978 26.3666L206.922 22.4089L209.281 20.9137L210.585 24.6768L207.978 26.3666ZM211.307 17.021L210.779 18.7904L208.42 15.5759L208.874 14.1014L211.301 16.9413L211.307 17.021ZM208.373 12.4351L208.668 13.8065L205.441 11.5593L205.247 10.5802L208.317 12.3496L208.373 12.4351ZM195.898 7.62225H195.845L195.3 7.289L197.134 7.22118L197.022 7.57212L195.898 7.62225ZM195.686 7.65764L194.801 7.811L194.713 7.84049L193.406 7.59276L195.046 7.29785H195.105L195.686 7.65764ZM192.527 9.14102L188.989 9.89009L189.776 9.08205L189.856 9.03781L192.926 8.74291L192.551 9.12923L192.527 9.14102ZM188.337 12.2317L185.052 14.7797L184.889 13.3287V13.3022L188.201 11.2113L188.337 12.2317ZM185.88 16.496L183.565 19.9759L182.412 18.1917L184.922 15.0569L185.88 16.496ZM183.45 20.1883L182.032 23.8569L180.761 21.881V21.828L182.285 18.41L183.45 20.1883ZM184.335 26.0039L183.952 29.7079L181.592 27.8323V27.8057L182.041 24.1931L184.335 26.0039ZM187.337 31.5334L187.659 34.7331L184.527 33.2763L184.509 33.2615L184.064 30.0175L187.337 31.5334ZM187.685 34.9779H187.712L188.579 37.3372L185.851 36.0602L185.783 36.0071L184.603 33.5476L187.685 34.9779ZM203.418 37.7323L199.93 38.4519L200.304 36.1723L204.224 35.3819L203.448 37.7412L203.418 37.7323ZM210.399 32.0288L207.866 33.7186L208.308 30.5395L210.962 28.7878L210.431 31.9787L210.399 32.0288ZM210.989 28.5253L208.314 30.2948L208.019 26.5789L210.626 24.892L211.006 28.5224L210.989 28.5253ZM212.275 22.6272L210.653 24.5618L209.367 20.8312L210.841 19.1089L212.283 22.6124L212.275 22.6272ZM205.238 10.4416V10.3973L204.648 9.59518L207.061 10.7925L207.32 10.9754L208.19 12.1314L205.238 10.4416ZM202.643 8.4244L200.216 8.34478L200.163 8.30644L199.532 8.03807L201.224 7.84934L201.351 7.87882L202.643 8.4244ZM199.337 7.9555L199.263 7.92306L198.449 7.72842L199.293 7.40402H199.378L200.921 7.7697L199.337 7.9555ZM198.269 7.68713L198.21 7.67239L197.146 7.57212L197.261 7.21528L199.057 7.38042L198.269 7.68713ZM193.129 7.62815L194.527 7.89651L193.855 8.1236L193.778 8.16783L191.616 8.12065L193.008 7.64879L193.129 7.62815ZM191.203 8.25925L191.324 8.22091L193.601 8.27105L193.088 8.56596L193.041 8.61315L190.092 8.90805L191.203 8.25925ZM188.62 9.99921L185.848 11.4737L186.865 10.4357L187.37 10.1408L189.345 9.2295L188.646 9.94023L188.62 9.99921ZM185.603 11.7185L188.552 10.1467L188.186 11.0815V11.0992L184.942 13.137L185.473 11.8217L185.603 11.7185ZM184.875 14.9625L182.394 18.0472L182.2 16.2778L182.241 16.1775L184.683 13.5027L184.875 14.9625ZM180.566 19.6987L180.885 18.9172L182.032 16.5344L182.22 18.2684L182.238 18.2979L180.764 21.6097L180.566 19.6987ZM183.966 29.9704H183.984L184.42 33.1613L182.209 31.3918L182.156 31.3063L181.639 28.1183L183.966 29.9704ZM193.613 39.9972L196.099 40.2332L196.155 40.3275L194.149 40.1358L193.613 39.9972ZM196.181 40.1299L196.078 38.8795L199.762 38.6937L199.213 39.9736L196.181 40.1299ZM203.498 37.9476L206.258 36.8653L204.896 38.1658L204.654 38.331L202.416 39.2157L203.454 37.9594L203.498 37.9476ZM211.121 28.717H211.142L212.74 26.7854L212.251 29.469L212.103 29.9969L210.602 31.8371L211.121 28.717ZM212.749 26.4256L211.113 28.4103L210.726 24.8301L212.348 22.9014L212.761 26.3371L212.749 26.4256ZM210.939 19.0293V19.0145L211.461 17.2451L212.853 20.2974L212.897 20.5068L212.339 22.465L210.939 19.0293ZM209.55 13.3287L210.024 13.9569L208.591 12.4293L208.57 12.3378L208.491 12.2287L209.55 13.3287ZM189.54 9.01717L188.393 9.548L188.882 9.25309L189.602 8.94049L189.54 9.01717ZM184.662 13.311V13.3612L182.35 15.8885L182.961 14.3933L185.093 12.2199L184.662 13.311ZM180.566 21.943L180.604 22.002L180.191 25.0071L180.029 23.3615L180.424 20.5569L180.566 21.943ZM181.451 27.9827L181.498 28.0181L181.99 31.0674L180.879 29.2537L180.348 26.1985L181.451 27.9827ZM199.316 39.95L199.859 38.6849L203.268 37.986L202.198 39.2806L202.13 39.3071L201.54 39.4841L199.316 39.95ZM205.394 37.8149L206.497 36.7591L206.606 36.7178L207.786 35.9216L206.565 37.0216L205.394 37.8149ZM210.408 33.0669L209.384 34.3262L210.473 32.247L210.543 32.1999L211.534 30.9878L210.408 33.0669ZM213.357 24.1754L212.826 26.0687L212.443 22.7658L212.472 22.7274L212.965 21.0111L213.357 24.1754Z" fill="black"/>
<path d="M324 23C321.233 23 319 20.7674 319 18C319 15.2093 321.233 13 324 13C326.791 13 329 15.2093 329 18C329 20.7674 326.791 23 324 23ZM319.884 18C319.884 20.3023 321.698 22.1163 324 22.1163C326.302 22.1163 328.093 20.3256 328.093 18C328.093 15.6744 326.302 13.8837 324 13.8837C321.674 13.8837 319.884 15.6744 319.884 18ZM322.233 20.5116V15.4419H323.953C325.093 15.4419 325.814 16.0465 325.814 17C325.814 17.6744 325.465 18.0233 324.698 18.1395C325.581 18.186 325.744 18.4419 325.814 19.3953L325.884 20.5116H324.907L324.837 19.3023C324.791 18.6744 324.674 18.5581 324.07 18.5581H323.209V20.5116H322.233ZM323.209 17.6512H323.953C324.581 17.6512 324.837 17.4651 324.837 17C324.837 16.5349 324.558 16.3488 323.953 16.3488H323.209V17.6512Z" fill="black"/>
</svg>
