<svg width="42" height="42" viewBox="0 0 42 42" fill="none" xmlns="http://www.w3.org/2000/svg">
<g clip-path="url(#clip0_40_469)">
<path fill-rule="evenodd" clip-rule="evenodd" d="M11.3252 35.3772C11.3779 36.1352 11.2757 36.896 11.0249 37.6133C10.774 38.3305 10.3797 38.9892 9.86607 39.5492C9.35241 40.1091 8.73012 40.5586 8.03712 40.8703C7.34411 41.182 6.59491 41.3493 5.83515 41.3621C5.07539 41.3748 4.32098 41.2328 3.61791 40.9445C2.91483 40.6563 2.2778 40.2279 1.74562 39.6856C1.21345 39.1432 0.797288 38.4981 0.522485 37.7897C0.247681 37.0812 0.119995 36.3243 0.147206 35.5649V35.3772C0.226194 33.9483 0.849463 32.6039 1.88894 31.6203C2.92841 30.6367 4.30514 30.0886 5.73621 30.0886C7.16729 30.0886 8.54401 30.6367 9.58349 31.6203C10.623 32.6039 11.2462 33.9483 11.3252 35.3772ZM26.2065 38.9439C26.2266 39.1988 26.1929 39.4551 26.1076 39.6961C26.0224 39.9372 25.8874 40.1577 25.7116 40.3433C25.5457 40.5427 25.3365 40.7017 25.0999 40.8081C24.8633 40.9146 24.6056 40.9657 24.3463 40.9576H20.4212C19.9569 40.9586 19.5097 40.7827 19.1705 40.4657C18.8313 40.1487 18.6256 39.7144 18.5952 39.2511C18.1766 34.953 16.2783 30.9337 13.2247 27.8801C10.1711 24.8266 6.15184 22.9283 1.85377 22.5096C1.39048 22.4793 0.956151 22.2736 0.639132 21.9343C0.322113 21.5951 0.146212 21.1479 0.147206 20.6836V16.7585C0.133792 16.4936 0.182336 16.2291 0.288982 15.9862C0.395629 15.7433 0.557441 15.5286 0.76157 15.3591C0.925067 15.1968 1.11973 15.0693 1.33384 14.9842C1.54795 14.8992 1.77706 14.8584 2.00736 14.8642H2.16096C8.37168 15.3593 14.2007 18.0589 18.5952 22.4755C23.0191 26.8788 25.7193 32.7211 26.2065 38.9439ZM41.1048 38.9439C41.1235 39.1964 41.0857 39.45 40.9941 39.6861C40.9026 39.9223 40.7597 40.1351 40.5758 40.3091C40.4102 40.4978 40.2051 40.6476 39.975 40.7479C39.7449 40.8482 39.4955 40.8965 39.2447 40.8894H35.0806C34.6128 40.891 34.1615 40.7162 33.8168 40.3999C33.472 40.0836 33.2591 39.6491 33.2205 39.1828C32.7515 31.0199 29.2953 23.315 23.5106 17.5366C17.7259 11.7582 10.0172 8.31033 1.85377 7.85023C1.39048 7.81986 0.956151 7.61414 0.639132 7.27493C0.322113 6.93572 0.146212 6.48849 0.147206 6.0242V1.86018C0.140083 1.60929 0.188389 1.35991 0.288683 1.12983C0.388976 0.899741 0.538787 0.694611 0.727439 0.529057C0.895011 0.360366 1.09448 0.226712 1.31422 0.135885C1.53397 0.0450575 1.76959 -0.0011276 2.00736 2.09054e-05C12.1809 0.523192 21.7943 4.81881 28.9711 12.0484C36.232 19.2119 40.5588 28.8269 41.1048 39.0121V38.9439Z" fill="black"/>
</g>
<defs>
<clipPath id="clip0_40_469">
<rect width="40.9576" height="41.06" fill="white" transform="translate(0.147095)"/>
</clipPath>
</defs>
</svg>
