<svg width="471" height="518" viewBox="0 0 471 518" fill="none" xmlns="http://www.w3.org/2000/svg">
<path d="M561.409 144.797L536.628 111.705C536.538 111.584 536.433 111.475 536.317 111.379L495.863 69.0819L495.751 68.9314H495.651L477.249 55.8148L463.083 45.7829L417.932 25.155L387.595 12.3017L351.588 3.67424L312.592 0L273.097 1.46722L235.645 7.98787L202.654 19.2737H202.542L161.053 37.3937L160.916 37.4816L124.125 58.7993L123.901 58.9247L105.723 77.5714L98.4847 84.9574L53.5577 131.041L53.346 131.267L25.3133 189.276L9.45303 228.338V228.451L9.32847 228.777V229.028L0.00920264 295.238V295.426C-0.00306755 295.513 -0.00306755 295.602 0.00920264 295.689L4.13311 337.685V338.137L15.2838 402.955V403.256L46.1571 461.353L67.8731 496.841L68.0848 497.016L111.99 537.043L143.063 562.386L185.722 582.638L220.607 593.009L256.128 602.238L295.162 606L334.644 603.956L372.021 596.231L401.785 587.341L447.186 569.308L482.607 545.395L524.518 507.412L524.631 507.337L524.718 507.224L552.215 473.141L582.627 417.012L582.764 416.837L594.039 376.17V376.057L606 310.687V310.399L597.578 244.025V243.925L588.856 203.998C588.795 203.745 588.685 203.506 588.533 203.296L561.459 144.998L561.409 144.797ZM585.318 204.989L590.999 231.084L568.798 182.003L569.134 180.824L565.01 161.588L585.318 204.989ZM590.302 375.167L587.411 385.575L593.117 354L594.289 352.57L594.7 351.115L590.302 375.167ZM521.964 504.49L483.205 530.711L502.466 487.937L503.014 487.724L546.982 458.256L524.68 501.117L521.964 504.49ZM339.329 599.191L334.345 600.219L295.423 602.251H295.336L294.177 600.319L342.867 597.811L339.329 599.191ZM187.267 579.127L185.486 578.274L163.583 554.198L221.629 569.246H222.14L235.296 592.507L213.68 586.889L187.267 579.127ZM134.155 550.21L114.744 532.153L158.674 552.994L160.107 553.358L180.863 576.18L145.181 559.327L134.155 550.21ZM70.776 494.295L70.1156 493.229L63.4501 482.332L45.1978 447.534L82.5746 477.805L83.6585 478.319L103.892 521.256L70.776 494.295ZM7.70882 336.732L7.37241 333.309L15.5579 273.318L37.9841 308.982L38.2955 309.232L30.3717 373.323L7.70882 336.732ZM461.09 48.8426L478.42 61.1819L442.651 43.3001L441.492 41.7326L434.415 36.7167L461.09 48.8426ZM557.933 146.39L564.163 175.67L522.052 126.101L522.214 125.561L517.23 101.435L552.875 139.681L557.933 146.39ZM479.442 533.282L426.367 554.261L440.171 512.302L500.049 488.878L480.314 532.692L479.442 533.282ZM237.826 593.184L224.407 569.534L289.655 575.804L291.511 598.376L237.826 593.184ZM434.366 41.3312L377.553 32.8294L377.054 32.1396L368.657 26.0955L414.344 27.6002L416.275 28.4153L434.366 41.3312ZM159.87 549.195L144.047 506.145L211.799 523.701L220.52 565.083L160.119 549.433L159.87 549.195ZM555.118 214.983L528.655 246.107L490.082 181.364L512.022 156.284L555.118 214.983ZM240.429 30.9859L292.309 40.9049L233.278 38.259L240.018 31.2242L240.429 30.9859ZM253.648 23.462L295.299 39.5758L242.971 29.5439L253.088 23.625L253.648 23.462ZM270.119 17.8818L299.049 38.9863L256.452 22.4965L269.745 17.9446L270.119 17.8818ZM288.671 14.634L302.512 39.1368L272.723 17.4304L288.671 14.634ZM347.452 20.1014L359.662 25.2929L313.165 39.2121L346.879 20.0135L347.452 20.1014ZM362.901 26.6597L371.784 33.055L316.89 40.0773L362.353 26.4339L362.901 26.6597ZM452.331 62.7745L455.745 80.1798L386.548 53.4573L384.991 44.9302L452.02 62.4859L452.331 62.7745ZM509.505 153.4L487.864 178.229L436.907 121.21L452.406 103.993L509.505 153.4ZM290.228 527.2L290.066 469.642L368.969 465.817L366.128 523.388L290.228 527.2ZM352.597 227.974L339.665 156.698L376.244 150.001L404.252 218.281L352.597 227.974ZM262.021 87.2021L279.463 91.4531L257.623 150.854L223.336 142.49L262.021 87.2021ZM302.5 93.6725L321.998 92.9201L336.949 153.111L298.974 154.679L302.5 93.6725ZM283.039 88.13L304.219 47.1246L300.893 89.7601L283.039 88.13ZM322.796 88.9826L308.181 47.3504L339.665 85.9856L322.796 88.9826ZM320.84 89.1331L302.762 89.8605L306.101 47.0746L320.84 89.1331ZM341.795 85.5467L310.86 47.5637L356.223 80.4807L341.795 85.5467ZM281.033 87.8917L264.837 83.9792L301.877 47.3881L281.033 87.8917ZM338.868 152.973L323.917 92.6569L342.157 89.3965L374.55 146.44L338.868 152.973ZM358.403 79.7157L313.962 47.4507L369.442 73.0822L358.403 79.7157ZM262.706 83.4776L249.375 77.7093L299.074 47.6137L262.706 83.4776ZM281.395 91.8417L300.619 93.6725L297.093 154.716L259.591 151.168L281.395 91.8417ZM376.431 146.039L344.038 88.8447L359.686 83.3773L407.143 135.092L376.431 146.039ZM371.448 71.9285L316.902 46.7736L378.4 64.2164L371.448 71.9285ZM247.307 76.7688L237.601 69.6086L296.009 47.2251L247.307 76.7688ZM245.837 80.2549L260.252 86.5249L221.554 141.951L193.061 129.411L245.837 80.2549ZM337.858 156.974L350.778 228.212L295.672 230.582L298.85 158.566L337.858 156.974ZM351.364 232.012L361.157 308.718L292.932 311.79L295.523 234.407L351.364 232.012ZM363.051 308.505L353.245 231.774L405.573 221.968L426.903 296.228L363.051 308.505ZM406.183 217.855L377.951 149.487L409.473 138.201L450.438 201.603L406.183 217.855ZM409.024 134.339L361.393 82.4118L373.366 75.2641L432.634 119.868L409.024 134.339ZM382.586 54.3853L379.783 62.6115L319.319 45.4443L382.586 54.3853ZM235.845 68.1791L230.275 60.1786L293.168 46.2093L235.845 68.1791ZM233.689 71.4143L244.167 79.1389L191.067 128.584L170.248 112.946L233.689 71.4143ZM296.956 158.466L293.766 230.482L239.308 225.316L258.445 154.804L296.956 158.466ZM293.617 234.307L291.025 311.69L223.597 305.27L238.424 229.053L293.617 234.307ZM290.739 315.54L288.957 392.158L213.468 384.96L222.8 309.057L290.739 315.54ZM290.863 392.208L292.633 315.578L361.368 312.493L367.224 388.622L290.863 392.208ZM428.585 295.652L407.28 221.491L452.331 205.089L483.479 275.312L428.585 295.652ZM452.182 200.788L411.142 137.286L435.412 122.464L486.344 179.483L452.182 200.788ZM434.054 118.652L374.538 73.8345L382.187 65.6083L449.117 101.811L434.054 118.652ZM383.134 63.9532L386.1 55.263L455.87 82.2613L450.089 100.168L383.134 63.9532ZM380.979 44.2155L382.474 52.3915L320.08 43.6136L380.979 44.2155ZM229.241 58.4733L227.995 50.1844L291.15 44.7296L229.241 58.4733ZM226.326 61.4577L232.294 70.0349L168.828 111.617L156.955 94.0613L226.326 61.4577ZM219.436 145.286L185.71 212.224L144.321 193.791L190.17 132.345L219.436 145.286ZM221.243 145.926L256.414 154.553L237.277 225.09L187.541 212.789L221.243 145.926ZM236.405 228.814L221.567 305.019L159.995 289.62L185.996 216.325L236.405 228.814ZM220.969 308.806L211.637 384.659L142.751 367.242L158.948 293.257L220.969 308.806ZM288.932 396.033L288.11 465.817L210.055 458.356L213.194 388.785L288.932 396.033ZM290.004 465.867L290.826 396.058L367.448 392.484L368.956 462.018L290.004 465.867ZM369.143 388.421L363.287 312.305L427.65 299.953L440.62 374.377L369.143 388.421ZM485.185 274.422L454.038 204.199L488.637 182.58L527.259 247.561L485.185 274.422ZM374.301 34.9109L379.708 42.3345L319.332 41.6949L374.014 34.6978L374.301 34.9109ZM309.514 39.0742L328.988 15.7124L344.138 19.3365L309.514 39.0742ZM290.826 42.8361L228.456 48.2282L231.471 40.1902L290.826 42.8361ZM224.295 50.9619L225.603 59.7398L156.369 92.3434L153.952 74.2609L224.295 50.9619ZM167.196 115.392L188.563 131.442L142.664 192.888L112.526 169.827L167.196 115.392ZM184.215 215.71L158.238 288.993L107.069 265.882L142.303 197.001L184.215 215.71ZM157.154 292.692L140.957 366.552L83.7956 340.369L105.624 269.381L157.154 292.692ZM211.325 388.509L208.198 457.967L137.008 439.784L142.228 371.004L211.325 388.509ZM288.11 469.654L288.272 527.175L213.257 519.977L210.104 462.156L288.11 469.654ZM288.334 531.024L289.418 571.992L222.638 565.572L213.792 523.852L288.334 531.024ZM367.984 523.124L370.837 465.629L444.607 450.87L439 508.653L367.984 523.124ZM370.875 461.679L369.367 392.183L441.056 378.114L444.794 446.882L370.875 461.679ZM442.464 373.75L429.507 299.376L484.787 278.823L503.774 350.463L442.464 373.75ZM518.314 125.336L510.265 151.544L453.44 102.375L459.346 84.1171L518.289 125.21L518.314 125.336ZM438.764 44.4662L450.263 59.978L384.642 42.7608V42.485L379.147 34.9611L437.704 43.7389L438.764 44.4662ZM326.745 15.449L306.811 39.3877L309.876 13.8691L326.745 15.449ZM304.867 39.4628L290.739 14.5838L307.92 13.9317L304.867 39.4628ZM224.096 48.943L154.774 71.8282L161.34 54.9746L161.851 54.4355L227.223 40.6416L224.096 48.943ZM153.69 96.0928L165.838 114.037L111.205 168.41L94.1988 142.578L153.69 96.0928ZM140.596 196.123L105.424 264.904L68.2967 235.962L110.059 172.761L140.596 196.123ZM103.854 268.528L82.1759 339.24L40.8123 306.474L66.5649 239.436L103.854 268.528ZM140.297 370.477L135.089 439.045L76.0835 411.67L83.0107 344.181L140.297 370.477ZM208.111 461.93L211.263 519.613L142.876 502.057L137.008 443.822L208.111 461.93ZM291.237 572.055L290.153 531.049L365.567 527.287L358.827 568.669L291.237 572.055ZM501.444 484.276L440.869 508.001L446.476 450.468L509.58 426.116L501.619 484.163L501.444 484.276ZM446.525 446.38L442.85 377.75L504.31 354.451L509.804 421.94L446.525 446.38ZM505.394 349.623L486.444 278.146L528.804 251.135L552.24 319.126L505.394 349.623ZM565.197 180.712L555.74 212.901L513.231 154.804L521.354 128.358L564.96 179.696L565.197 180.712ZM512.545 97.8484L517.678 122.615L459.931 82.2989L456.455 64.6052L511.574 96.5818L512.545 97.8484ZM288.533 10.8219L287.587 10.9975L277.781 4.97828L310.735 3.72429L308.717 10.0695L288.533 10.8219ZM284.796 11.4865L268.936 14.2578L267.341 14.7971L243.906 10.2952L273.371 5.1413H274.393L284.796 11.4865ZM228.045 38.5725L164.268 52.0654L178.421 37.4816L179.842 36.6539L234.96 31.1489L228.22 38.1211L228.045 38.5725ZM152.843 94.4125L93.8375 140.484L90.7103 114.301L90.8972 113.812L150.326 76.029L152.843 94.4125ZM108.714 171.457L67.138 234.37L46.4312 202.105V201.992L91.5451 145.349L108.714 171.457ZM65.1072 238.194L39.6411 304.505L17.053 268.541L16.9533 267.588L44.363 205.804L65.1072 238.194ZM81.3038 343.328H81.3661L74.5012 410.278L32.2654 376.421L31.9913 375.994L40.0398 310.674L81.3038 343.328ZM135.226 443.245L141.032 501.079L84.7799 474.746L84.4684 474.495L76.4698 416.009L135.226 443.245ZM141.456 505.493L141.929 505.619L157.428 548.129L108.452 525.055L107.206 524.077L86.2625 479.624L141.456 505.493ZM423.95 555.289L360.945 568.268L367.685 527.112L438.078 512.792L424.124 555.226L423.95 555.289ZM549.212 452.224L503.737 482.771L511.648 425.326L559.466 393.663L549.935 451.346L549.212 452.224ZM559.678 388.936L511.648 420.799L506.179 353.648L553.025 323.139L559.84 388.747L559.678 388.936ZM582.752 282.523L553.622 317.433L530.349 249.844L556.924 218.695L582.839 282.021L582.752 282.523ZM455.994 62.0847L455.832 61.2696L445.105 46.7862L488.4 68.4298L493.072 71.7529L508.683 92.6569L455.994 62.0847ZM409.385 25.6064L365.779 24.1894L364.857 23.5122L353.482 18.6467L383.919 15.2485L386.187 15.7876L409.385 25.6064ZM350.056 17.1671L348.723 16.6027L334.108 13.0791L349.246 7.1853L350.791 7.33577L378.487 13.9443L350.056 17.1671ZM330.844 12.3017L329.797 12.0382L310.673 10.2325L312.741 3.7494L344.997 6.78409L330.844 12.3017ZM238.548 11.2607L263.641 16.076L251.605 20.1891L250.21 20.9917L211.413 20.139L236.331 11.637L238.548 11.2607ZM204 22.672L206.142 21.9322L247.033 22.835L237.813 28.1895L236.978 29.0548L183.791 34.3717L204 22.672ZM157.615 54.0969L107.779 80.6437L126.094 61.834L135.151 56.6048L170.597 40.0773L158.038 52.9557L157.615 54.0969ZM103.406 85.1455L156.568 56.7804L149.953 73.5964V73.9348L91.9562 110.764L101.462 86.9386L103.406 85.1455ZM90.3366 143.669L46.0326 199.283L42.5565 167.294L43.2916 165.488L87.1346 117.147L90.3366 143.669ZM12.9665 229.291L18.6976 215.171L39.2922 172.122L42.6935 203.471L43.0174 203.973L16.4674 263.826L12.9665 229.291ZM74.0153 414.956L74.3268 415.094L82.2008 472.777L42.4692 440.562L41.5224 439.032L32.253 381.424L74.0153 414.956ZM247.195 596.094L291.848 600.382L292.857 602.062L256.838 598.602L247.195 596.094ZM293.293 598.489L291.436 575.917L357.581 572.544L347.751 595.667L293.293 598.489ZM424.697 559.038L474.259 539.476L449.802 563.013L445.454 565.96L405.361 581.873L423.975 559.164L424.697 559.038ZM561.559 392.259L561.945 391.995L590.601 357.072L581.879 405.588L579.238 415.119L552.377 448.312L561.559 392.259ZM590.837 350.877L561.447 386.791L554.744 322.023L583.873 287.137L591.348 349.234L590.837 350.877ZM558.295 217.202L558.494 216.977L567.913 184.925L592.831 240.1L593.653 243.862L583.611 279.225L558.295 217.202ZM533.688 114.1L542.21 125.486L516.495 97.8984L516.134 96.193L514.701 94.2745L533.688 114.1ZM174.372 36.2025L153.79 45.7829L162.586 40.7043L175.493 35.0613L174.372 36.2025ZM86.7609 113.774L86.8729 114.677L45.3971 160.372L56.3485 133.349L94.6225 94.099L86.7609 113.774ZM13.2531 269.807L13.9009 270.848L6.50027 325.183L4.85568 308.442L3.60978 295.451L10.7488 244.765L13.2531 269.807ZM29.2378 378.904L30.0727 379.568L38.906 434.668L18.8222 401.889L9.316 346.714L29.2378 378.904ZM350.031 595.178L359.761 572.305L420.972 559.766L401.623 583.328L400.377 583.805L389.787 586.964L350.031 595.178ZM459.159 556.618L478.981 537.533L480.962 536.755L502.267 522.359L480.351 542.248L459.159 556.618ZM549.137 470.821L537.7 484.991L530.773 493.58L550.321 455.961L551.567 455.121L551.804 454.97L569.558 433.038L549.137 470.821ZM602.212 310.148L592.681 344.381L585.629 284.993L586.19 284.303L595.011 253.28L602.212 310.148Z" fill="white"/>
</svg>
